<svg width="23" height="23" viewBox="0 0 23 23" fill="none" xmlns="http://www.w3.org/2000/svg">
<path d="M9.9922 1.47602L9.9922 17.9632L2.59556 10.7602C2.00443 10.1845 1.03438 10.1845 0.443258 10.7602C0.302747 10.8967 0.19127 11.0589 0.11521 11.2375C0.0391497 11.4161 -4.97983e-07 11.6075 -4.89533e-07 11.8008C-4.81083e-07 11.9941 0.0391498 12.1855 0.11521 12.3641C0.19127 12.5426 0.302747 12.7048 0.443258 12.8414L10.4318 22.5683C10.572 22.7052 10.7385 22.8137 10.9219 22.8878C11.1053 22.9619 11.3018 23 11.5003 23C11.6988 23 11.8954 22.9619 12.0788 22.8878C12.2621 22.8137 12.4287 22.7052 12.5689 22.5683L22.5574 12.8414C22.6977 12.7047 22.809 12.5425 22.885 12.3639C22.9609 12.1854 23 11.994 23 11.8008C23 11.6075 22.9609 11.4162 22.885 11.2376C22.809 11.0591 22.6977 10.8968 22.5574 10.7602C22.4171 10.6235 22.2505 10.5151 22.0671 10.4412C21.8838 10.3672 21.6873 10.3292 21.4888 10.3292C21.2904 10.3292 21.0939 10.3672 20.9105 10.4412C20.7272 10.5151 20.5606 10.6235 20.4202 10.7602L13.0236 17.9632L13.0236 1.47602C13.0236 0.664209 12.3415 1.36788e-06 11.5079 1.40432e-06C10.6743 1.44076e-06 9.9922 0.664209 9.9922 1.47602Z" fill="#1DBCAB"/>
</svg>
